/* XPM */
static char *phone_icon[] = {
/* columns rows colors chars-per-pixel */
"30 46 94 2 ",
"   c black",
".  c #010101",
"X  c gray1",
"o  c #040404",
"O  c gray2",
"+  c #060606",
"@  c gray3",
"#  c #090909",
"$  c #0B0B0B",
"%  c #0E0E0E",
"&  c #111111",
"*  c gray7",
"=  c #131313",
"-  c #161616",
";  c gray9",
":  c #1B1B1B",
">  c gray11",
",  c gray12",
"<  c #232323",
"1  c gray16",
"2  c #2A2A2A",
"3  c gray17",
"4  c #2F2F2F",
"5  c #313131",
"6  c gray20",
"7  c #343434",
"8  c #3A3A3A",
"9  c gray23",
"0  c gray25",
"q  c #434343",
"w  c #444444",
"e  c gray27",
"r  c #464646",
"t  c gray28",
"y  c #484848",
"u  c #494949",
"i  c #4B4B4B",
"p  c #4C4C4C",
"a  c gray30",
"s  c #4E4E4E",
"d  c gray31",
"f  c #505050",
"g  c gray32",
"h  c #535353",
"j  c gray33",
"k  c #555555",
"l  c #585858",
"z  c #5A5A5A",
"x  c #5B5B5B",
"c  c gray36",
"v  c #5D5D5D",
"b  c #626262",
"n  c gray39",
"m  c #656565",
"M  c gray40",
"N  c DimGray",
"B  c gray42",
"V  c #6C6C6C",
"C  c #6D6D6D",
"Z  c gray43",
"A  c gray45",
"S  c #767676",
"D  c #777777",
"F  c gray47",
"G  c #838383",
"H  c #868686",
"J  c #888888",
"K  c #8D8D8D",
"L  c gray57",
"P  c gray58",
"I  c #959595",
"U  c gray59",
"Y  c #979797",
"T  c #989898",
"R  c gray60",
"E  c #9A9A9A",
"W  c #9D9D9D",
"Q  c #A7A7A7",
"!  c gray66",
"~  c #A9A9A9",
"^  c #ACACAC",
"/  c gray69",
"(  c #B2B2B2",
")  c #D5D5D5",
"_  c #E6E6E6",
"`  c gray91",
"'  c #ECECEC",
"]  c #F1F1F1",
"[  c gray95",
"{  c gray96",
"}  c #F6F6F6",
"|  c gray98",
" . c #FDFDFD",
".. c gray100",
/* pixels */
"..^ e 2 4 4 4 4 5 4 4 4 4 4 4 4 4 4 4 4 4 4 4 4 4 4 2 e ^ ..",
"/ o                                                       ( ",
"k                                                         k ",
"e                                                         i ",
"i                                                         i ",
"i                                                         i ",
"i         o 9 x c c c c c c c c c c c c c c x 5           i ",
"i       o H } ................................' C         i ",
"e       q | ...................................._ 2       i ",
"i       M ......................................} d       i ",
"i       b ......................................} d       i ",
"i       b ......................................} d       i ",
"e       b ......................................[ d       i ",
"i       b ......................................} d       i ",
"i       b ......................................} i       i ",
"e       b ......................................[ d       i ",
"i       b ......................................} d       i ",
"i       b ......................................} i       i ",
"e       b ......................................} d       i ",
"i       b ......................................[ d       i ",
"i       b ......................................[ d       i ",
"e       b ......................................} d       i ",
"i       b ......................................} i       i ",
"i       b ......................................[ d       i ",
"e       b ......................................} d       i ",
"i       b ......................................} i       i ",
"i       b ......................................} d       i ",
"e       b ......................................[ d       i ",
"i       b ......................................[ d       i ",
"i       b ......................................} d       i ",
"e       b ......................................} i       i ",
"i       b ......................................[ d       i ",
"i       b ......................................} d       i ",
"e       M ......................................} d       i ",
"i       k ......................................[ 9       i ",
"i       - / ....................................E @       i ",
"e         - A E E E E E U E U E E E E E E E E B $         d ",
"i                                                         i ",
"i                           & &                           i ",
"e                       o A ) ) A o                       i ",
"i     < J U L U U U L 2 d ........g e U U L L U U F -     i ",
"i     d ..............B G ........K W ............_ 2     i ",
"q     $ 9 e e e e e q & C ........C : e e e e e i 5 o     e ",
"g                       - Q [ [ ! -                       k ",
"Q                         @ e i @                         ! ",
"..W 5 , , , , , , , , , , : & & : , , , , , , , , , , 5 W .."
};
